<svg xmlns="http://www.w3.org/2000/svg" viewBox="-3577 1698 335.57 544">
            <g id="Athena_white" transform="translate(-4068.4 1213.97)">
              <g id="Layer_1" data-name="Layer 1" transform="translate(492 528)">
                <path id="Path_65" data-name="Path 65" class="cls-1" d="M0,286.88" transform="translate(-0.6)"/>
                <path id="Path_66" data-name="Path 66" class="cls-2" d="M0,286.88" transform="translate(-0.6)"/>
                <path id="Path_67" data-name="Path 67" class="cls-1" d="M82.1,307.33" transform="translate(-0.6)"/>
                <path id="Path_68" data-name="Path 68" class="cls-2" d="M82.1,307.33" transform="translate(-0.6)"/>
                <text id="ATHENA" class="cls-3" transform="translate(49.52 394.35)"><tspan class="cls-4" x="0" y="0">A</tspan><tspan y="0">THENA</tspan></text>
                <text id="A" class="cls-5" transform="translate(80.63 252.03)"><tspan x="0" y="0">A</tspan></text>
                <path id="Path_69" data-name="Path 69" class="cls-1" d="M214.39,43.89s1.27.72,2.91,1.9a25.49,25.49,0,0,1,5,4.88,7.94,7.94,0,0,1,1.92,6.08,5.49,5.49,0,0,1-1.58,2.85,13.66,13.66,0,0,1-3.89,2.53,28,28,0,0,1-2.45-1.71,31.269,31.269,0,0,1-4.6-4.24,8.69,8.69,0,0,1-2.37-5.81C209.47,48.26,210.79,46,214.39,43.89Z" transform="translate(-0.6)"/>
                <path id="Path_70" data-name="Path 70" class="cls-1" d="M214.39,43.89s1.27.72,2.91,1.9a25.49,25.49,0,0,1,5,4.88,7.94,7.94,0,0,1,1.92,6.08,5.49,5.49,0,0,1-1.58,2.85,13.66,13.66,0,0,1-3.89,2.53,28,28,0,0,1-2.45-1.71,31.269,31.269,0,0,1-4.6-4.24,8.69,8.69,0,0,1-2.37-5.81C209.47,48.26,210.79,46,214.39,43.89Z" transform="translate(-0.6)"/>
                <path id="Path_71" data-name="Path 71" class="cls-1" d="M242.48,49a44.62,44.62,0,0,1,3.22,3.1,32.46,32.46,0,0,1,5.1,7.34c1.27,2.82,1.8,5.68.79,8s-3.55,4.18-8.16,5.12a35.357,35.357,0,0,1-2.59-2.7c-.73-.82-1.53-1.85-2.34-2.91a26.491,26.491,0,0,1-2.29-3.46c-1.33-2.5-2.23-5.14-1.6-7.71a7.51,7.51,0,0,1,2.28-3.71,12.409,12.409,0,0,1,2.33-1.68A19.441,19.441,0,0,1,242.48,49Z" transform="translate(-0.6)"/>
                <path id="Path_72" data-name="Path 72" class="cls-1" d="M242.48,49a44.62,44.62,0,0,1,3.22,3.1,32.46,32.46,0,0,1,5.1,7.34c1.27,2.82,1.8,5.68.79,8s-3.55,4.18-8.16,5.12a35.357,35.357,0,0,1-2.59-2.7c-.73-.82-1.53-1.85-2.34-2.91a26.491,26.491,0,0,1-2.29-3.46c-1.33-2.5-2.23-5.14-1.6-7.71a7.51,7.51,0,0,1,2.28-3.71,12.409,12.409,0,0,1,2.33-1.68A19.441,19.441,0,0,1,242.48,49Z" transform="translate(-0.6)"/>
                <path id="Path_73" data-name="Path 73" class="cls-1" d="M272,63.84s.32.38.81,1.1,1.14,1.74,1.84,3A37,37,0,0,1,276.72,72a30.122,30.122,0,0,1,1.54,4.76c.75,3.17.56,6.37-1,8.55a7.33,7.33,0,0,1-3.57,2.55,18.71,18.71,0,0,1-6.18.84,38.774,38.774,0,0,1-2-3.49,38.29,38.29,0,0,1-3.37-7.75c-.87-2.85-1.18-5.88.07-8.42S266.23,64.47,272,63.84Z" transform="translate(-0.6)"/>
                <path id="Path_74" data-name="Path 74" class="cls-1" d="M272,63.84s.32.38.81,1.1,1.14,1.74,1.84,3A37,37,0,0,1,276.72,72a30.122,30.122,0,0,1,1.54,4.76c.75,3.17.56,6.37-1,8.55a7.33,7.33,0,0,1-3.57,2.55,18.71,18.71,0,0,1-6.18.84,38.774,38.774,0,0,1-2-3.49,38.29,38.29,0,0,1-3.37-7.75c-.87-2.85-1.18-5.88.07-8.42S266.23,64.47,272,63.84Z" transform="translate(-0.6)"/>
                <path id="Path_75" data-name="Path 75" class="cls-1" d="M299,86.52a32.913,32.913,0,0,1,1.84,5A48.529,48.529,0,0,1,302,96.4a32.756,32.756,0,0,1,.44,5.45c0,3.55-1,6.88-3.25,8.76a7.92,7.92,0,0,1-4.41,1.76,20.48,20.48,0,0,1-6.72-.7s-.62-1.68-1.26-4.19a41.458,41.458,0,0,1-1-4.2c-.15-.77-.27-1.57-.37-2.38s-.21-1.6-.26-2.42c-.21-3.23.24-6.55,2.15-8.9S292.79,85.7,299,86.52Z" transform="translate(-0.6)"/>
                <path id="Path_76" data-name="Path 76" class="cls-1" d="M299,86.52a32.913,32.913,0,0,1,1.84,5A48.529,48.529,0,0,1,302,96.4a32.756,32.756,0,0,1,.44,5.45c0,3.55-1,6.88-3.25,8.76a7.92,7.92,0,0,1-4.41,1.76,20.48,20.48,0,0,1-6.72-.7s-.62-1.68-1.26-4.19a41.458,41.458,0,0,1-1-4.2c-.15-.77-.27-1.57-.37-2.38s-.21-1.6-.26-2.42c-.21-3.23.24-6.55,2.15-8.9S292.79,85.7,299,86.52Z" transform="translate(-0.6)"/>
                <path id="Path_77" data-name="Path 77" class="cls-1" d="M319.17,116.93s.11.54.25,1.47a31.9,31.9,0,0,1,.37,3.78,49.746,49.746,0,0,1,0,5.08,30.148,30.148,0,0,1-.86,5.4c-.85,3.46-2.58,6.44-5.22,7.75a7.89,7.89,0,0,1-4.7.66,14.74,14.74,0,0,1-2.94-.75,25.221,25.221,0,0,1-3.44-1.52s-.05-.45-.1-1.21-.07-1.87-.13-3.15a46.189,46.189,0,0,1,.52-9.14c.57-3.2,1.77-6.31,4.18-8.15a8.56,8.56,0,0,1,4.77-1.66,17.65,17.65,0,0,1,7.3,1.44Z" transform="translate(-0.6)"/>
                <path id="Path_78" data-name="Path 78" class="cls-1" d="M319.17,116.93s.11.54.25,1.47a31.9,31.9,0,0,1,.37,3.78,49.746,49.746,0,0,1,0,5.08,30.148,30.148,0,0,1-.86,5.4c-.85,3.46-2.58,6.44-5.22,7.75a7.89,7.89,0,0,1-4.7.66,14.74,14.74,0,0,1-2.94-.75,25.221,25.221,0,0,1-3.44-1.52s-.05-.45-.1-1.21-.07-1.87-.13-3.15a46.189,46.189,0,0,1,.52-9.14c.57-3.2,1.77-6.31,4.18-8.15a8.56,8.56,0,0,1,4.77-1.66,17.65,17.65,0,0,1,7.3,1.44Z" transform="translate(-0.6)"/>
                <path id="Path_79" data-name="Path 79" class="cls-1" d="M331.61,151.28a14.08,14.08,0,0,1-.11,1.49,33.6,33.6,0,0,1-.51,3.76,34.6,34.6,0,0,1-3.32,10c-1.71,3.16-4,5.63-6.9,6.28a7.86,7.86,0,0,1-4.71-.47,19.16,19.16,0,0,1-5.68-3.71s.06-.45.2-1.21l.59-3.08c.26-1.25.61-2.7,1.08-4.21a40.163,40.163,0,0,1,1.62-4.55,18,18,0,0,1,2.47-4.13,9.23,9.23,0,0,1,3.51-2.8C322.63,147.45,326.54,147.68,331.61,151.28Z" transform="translate(-0.6)"/>
                <path id="Path_80" data-name="Path 80" class="cls-1" d="M331.61,151.28a14.08,14.08,0,0,1-.11,1.49,33.6,33.6,0,0,1-.51,3.76,34.6,34.6,0,0,1-3.32,10c-1.71,3.16-4,5.63-6.9,6.28a7.86,7.86,0,0,1-4.71-.47,19.16,19.16,0,0,1-5.68-3.71s.06-.45.2-1.21l.59-3.08c.26-1.25.61-2.7,1.08-4.21a40.163,40.163,0,0,1,1.62-4.55,18,18,0,0,1,2.47-4.13,9.23,9.23,0,0,1,3.51-2.8C322.63,147.45,326.54,147.68,331.61,151.28Z" transform="translate(-0.6)"/>
                <path id="Path_81" data-name="Path 81" class="cls-1" d="M335.57,187.54a52.723,52.723,0,0,1-1.85,4.94,34.828,34.828,0,0,1-2.35,4.51,30.422,30.422,0,0,1-3.17,4.41c-2.45,2.67-5.27,4.54-8.21,4.5s-6-2-9.09-6.49a41.735,41.735,0,0,1,1.72-4,47.789,47.789,0,0,1,4.69-7.88,20.208,20.208,0,0,1,3.33-3.42,9.33,9.33,0,0,1,4.09-1.89,8.5,8.5,0,0,1,5,.72,14.17,14.17,0,0,1,2.84,1.72A19.439,19.439,0,0,1,335.57,187.54Z" transform="translate(-0.6)"/>
                <path id="Path_82" data-name="Path 82" class="cls-1" d="M335.57,187.54a52.723,52.723,0,0,1-1.85,4.94,34.828,34.828,0,0,1-2.35,4.51,30.422,30.422,0,0,1-3.17,4.41c-2.45,2.67-5.27,4.54-8.21,4.5s-6-2-9.09-6.49a41.735,41.735,0,0,1,1.72-4,47.789,47.789,0,0,1,4.69-7.88,20.208,20.208,0,0,1,3.33-3.42,9.33,9.33,0,0,1,4.09-1.89,8.5,8.5,0,0,1,5,.72,14.17,14.17,0,0,1,2.84,1.72A19.439,19.439,0,0,1,335.57,187.54Z" transform="translate(-0.6)"/>
                <path id="Path_83" data-name="Path 83" class="cls-1" d="M330.94,223.73a12.526,12.526,0,0,1-.78,1.27c-.52.79-1.28,1.88-2.21,3.1a34.339,34.339,0,0,1-7.48,7.38c-2.94,2-6.21,3.16-9,2.43a7.94,7.94,0,0,1-4-2.58,14.191,14.191,0,0,1-1.73-2.5,32.888,32.888,0,0,1-1.58-3.39,42.138,42.138,0,0,1,2.66-3.46c.87-1,1.75-2.13,2.85-3.26a36.884,36.884,0,0,1,3.57-3.3c2.49-2.05,5.4-3.63,8.47-3.43S328,218.19,330.94,223.73Z" transform="translate(-0.6)"/>
                <path id="Path_84" data-name="Path 84" class="cls-1" d="M330.94,223.73a12.526,12.526,0,0,1-.78,1.27c-.52.79-1.28,1.88-2.21,3.1a34.339,34.339,0,0,1-7.48,7.38c-2.94,2-6.21,3.16-9,2.43a7.94,7.94,0,0,1-4-2.58,14.191,14.191,0,0,1-1.73-2.5,32.888,32.888,0,0,1-1.58-3.39,42.138,42.138,0,0,1,2.66-3.46c.87-1,1.75-2.13,2.85-3.26a36.884,36.884,0,0,1,3.57-3.3c2.49-2.05,5.4-3.63,8.47-3.43S328,218.19,330.94,223.73Z" transform="translate(-0.6)"/>
                <path id="Path_85" data-name="Path 85" class="cls-1" d="M317.83,257.84s-.38.41-1,1.06a33.422,33.422,0,0,1-2.89,2.48,41.735,41.735,0,0,1-4.13,3,32.658,32.658,0,0,1-4.89,2.43,15.11,15.11,0,0,1-5,1.12,8.47,8.47,0,0,1-4.4-.89,7.93,7.93,0,0,1-3.27-3.45,20.311,20.311,0,0,1-1.83-6.5,42.255,42.255,0,0,1,3.42-2.72c1-.77,2.2-1.66,3.53-2.5a44.8,44.8,0,0,1,4.23-2.37c2.92-1.4,6.13-2.23,9.07-1.31S316.27,251.76,317.83,257.84Z" transform="translate(-0.6)"/>
                <path id="Path_86" data-name="Path 86" class="cls-1" d="M317.83,257.84s-.38.41-1,1.06a33.422,33.422,0,0,1-2.89,2.48,41.735,41.735,0,0,1-4.13,3,32.658,32.658,0,0,1-4.89,2.43,15.11,15.11,0,0,1-5,1.12,8.47,8.47,0,0,1-4.4-.89,7.93,7.93,0,0,1-3.27-3.45,20.311,20.311,0,0,1-1.83-6.5,42.255,42.255,0,0,1,3.42-2.72c1-.77,2.2-1.66,3.53-2.5a44.8,44.8,0,0,1,4.23-2.37c2.92-1.4,6.13-2.23,9.07-1.31S316.27,251.76,317.83,257.84Z" transform="translate(-0.6)"/>
                <path id="Path_87" data-name="Path 87" class="cls-1" d="M297.07,287.85a33.57,33.57,0,0,1-4.64,2.52,46.3,46.3,0,0,1-4.7,1.9,32.719,32.719,0,0,1-5.33,1.21,15.13,15.13,0,0,1-5.07-.07,8.491,8.491,0,0,1-4.06-1.9,7.92,7.92,0,0,1-2.37-4.12,20.4,20.4,0,0,1-.26-6.75,43.009,43.009,0,0,1,4-1.84c1.16-.53,2.53-1.09,4-1.6a47.014,47.014,0,0,1,4.66-1.31c3.17-.67,6.51-.7,9.12.86S297,281.59,297.07,287.85Z" transform="translate(-0.6)"/>
                <path id="Path_88" data-name="Path 88" class="cls-1" d="M297.07,287.85a33.57,33.57,0,0,1-4.64,2.52,46.3,46.3,0,0,1-4.7,1.9,32.719,32.719,0,0,1-5.33,1.21,15.13,15.13,0,0,1-5.07-.07,8.491,8.491,0,0,1-4.06-1.9,7.92,7.92,0,0,1-2.37-4.12,20.4,20.4,0,0,1-.26-6.75,43.009,43.009,0,0,1,4-1.84c1.16-.53,2.53-1.09,4-1.6a47.014,47.014,0,0,1,4.66-1.31c3.17-.67,6.51-.7,9.12.86S297,281.59,297.07,287.85Z" transform="translate(-0.6)"/>
                <path id="Path_89" data-name="Path 89" class="cls-1" d="M269.86,312.13s-.52.19-1.41.46a34.258,34.258,0,0,1-3.69.9,49.747,49.747,0,0,1-5,.75,32,32,0,0,1-5.47-.08c-3.54-.34-6.75-1.65-8.42-4.06a7.91,7.91,0,0,1-1.33-4.56,14,14,0,0,1,.33-3,26.108,26.108,0,0,1,1-3.62s1.74-.45,4.29-.86c1.25-.24,2.72-.46,4.28-.61.78-.07,1.59-.12,2.41-.14s1.62-.06,2.43,0c3.24.09,6.5.86,8.66,3a8.53,8.53,0,0,1,2.32,4.48A17.729,17.729,0,0,1,269.86,312.13Z" transform="translate(-0.6)"/>
                <path id="Path_90" data-name="Path 90" class="cls-1" d="M269.86,312.13s-.52.19-1.41.46a34.258,34.258,0,0,1-3.69.9,49.747,49.747,0,0,1-5,.75,32,32,0,0,1-5.47-.08c-3.54-.34-6.75-1.65-8.42-4.06a7.91,7.91,0,0,1-1.33-4.56,14,14,0,0,1,.33-3,26.108,26.108,0,0,1,1-3.62s1.74-.45,4.29-.86c1.25-.24,2.72-.46,4.28-.61.78-.07,1.59-.12,2.41-.14s1.62-.06,2.43,0c3.24.09,6.5.86,8.66,3a8.53,8.53,0,0,1,2.32,4.48A17.729,17.729,0,0,1,269.86,312.13Z" transform="translate(-0.6)"/>
                <path id="Path_91" data-name="Path 91" class="cls-1" d="M237.66,329.35s-.55.06-1.49.11a30.638,30.638,0,0,1-3.8,0,50,50,0,0,1-5.07-.48,28.072,28.072,0,0,1-5.29-1.36,16.29,16.29,0,0,1-4.47-2.36,8.56,8.56,0,0,1-2.74-3.57c-1.08-2.78-.37-6.22,2.66-10.87h1.22c.77,0,1.87.11,3.14.16a47.1,47.1,0,0,1,9.05,1.4c3.14.88,6.11,2.36,7.71,4.93S240.49,323.79,237.66,329.35Z" transform="translate(-0.6)"/>
                <path id="Path_92" data-name="Path 92" class="cls-1" d="M237.66,329.35s-.55.06-1.49.11a30.638,30.638,0,0,1-3.8,0,50,50,0,0,1-5.07-.48,28.072,28.072,0,0,1-5.29-1.36,16.29,16.29,0,0,1-4.47-2.36,8.56,8.56,0,0,1-2.74-3.57c-1.08-2.78-.37-6.22,2.66-10.87h1.22c.77,0,1.87.11,3.14.16a47.1,47.1,0,0,1,9.05,1.4c3.14.88,6.11,2.36,7.71,4.93S240.49,323.79,237.66,329.35Z" transform="translate(-0.6)"/>
                <path id="Path_93" data-name="Path 93" class="cls-1" d="M202.28,338.45a47.807,47.807,0,0,1-5.16-1.1,50.354,50.354,0,0,1-4.8-1.71,25.111,25.111,0,0,1-4.81-2.55c-3-2-5.23-4.53-5.6-7.44s1.1-6.26,5.14-10c0,0,.44.1,1.18.32s1.79.46,3,.85,2.63.88,4.09,1.49a32.21,32.21,0,0,1,4.38,2c2.84,1.66,5.37,3.7,6.32,6.61a8.52,8.52,0,0,1,0,5,14.16,14.16,0,0,1-1.31,3.07,22.413,22.413,0,0,1-2.43,3.46Z" transform="translate(-0.6)"/>
                <path id="Path_94" data-name="Path 94" class="cls-1" d="M202.28,338.45a47.807,47.807,0,0,1-5.16-1.1,50.354,50.354,0,0,1-4.8-1.71,25.111,25.111,0,0,1-4.81-2.55c-3-2-5.23-4.53-5.6-7.44s1.1-6.26,5.14-10c0,0,.44.1,1.18.32s1.79.46,3,.85,2.63.88,4.09,1.49a32.21,32.21,0,0,1,4.38,2c2.84,1.66,5.37,3.7,6.32,6.61a8.52,8.52,0,0,1,0,5,14.16,14.16,0,0,1-1.31,3.07,22.413,22.413,0,0,1-2.43,3.46Z" transform="translate(-0.6)"/>
                <path id="Path_95" data-name="Path 95" class="cls-1" d="M206.13,80.1a25.942,25.942,0,0,0,2.67-.61,26.8,26.8,0,0,0,5.49-2,9.3,9.3,0,0,0,4.46-4.07,6,6,0,0,0,.46-3.23A10.12,10.12,0,0,0,217.6,66a24.172,24.172,0,0,0-2.88.19A16.81,16.81,0,0,0,209,67.86a7.67,7.67,0,0,0-4.1,4.35C204.27,74.21,204.56,76.77,206.13,80.1Z" transform="translate(-0.6)"/>
                <path id="Path_96" data-name="Path 96" class="cls-1" d="M206.13,80.1a25.942,25.942,0,0,0,2.67-.61,26.8,26.8,0,0,0,5.49-2,9.3,9.3,0,0,0,4.46-4.07,6,6,0,0,0,.46-3.23A10.12,10.12,0,0,0,217.6,66a24.172,24.172,0,0,0-2.88.19A16.81,16.81,0,0,0,209,67.86a7.67,7.67,0,0,0-4.1,4.35C204.27,74.21,204.56,76.77,206.13,80.1Z" transform="translate(-0.6)"/>
                <path id="Path_97" data-name="Path 97" class="cls-1" d="M224.61,89.37a31.61,31.61,0,0,0,3.37-.12,33.61,33.61,0,0,0,7.16-1.08,11.51,11.51,0,0,0,6.51-3.82c1.52-2,2.11-5,.56-9.49a30.61,30.61,0,0,0-3.63-.49,23.61,23.61,0,0,0-3.56,0,20.57,20.57,0,0,0-3.89.67,8.89,8.89,0,0,0-7.18,8.62,15.569,15.569,0,0,0,.11,2.65,25.292,25.292,0,0,0,.55,3.06Z" transform="translate(-0.6)"/>
                <path id="Path_98" data-name="Path 98" class="cls-1" d="M224.61,89.37a31.61,31.61,0,0,0,3.37-.12,33.61,33.61,0,0,0,7.16-1.08,11.51,11.51,0,0,0,6.51-3.82c1.52-2,2.11-5,.56-9.49a30.61,30.61,0,0,0-3.63-.49,23.61,23.61,0,0,0-3.56,0,20.57,20.57,0,0,0-3.89.67,8.89,8.89,0,0,0-7.18,8.62,15.569,15.569,0,0,0,.11,2.65,25.292,25.292,0,0,0,.55,3.06Z" transform="translate(-0.6)"/>
                <path id="Path_99" data-name="Path 99" class="cls-1" d="M244,101.81s.37.07,1,.21,1.47.31,2.52.48,2.3.29,3.59.42a28.259,28.259,0,0,0,4.1.12,19.82,19.82,0,0,0,4.12-.61,9.42,9.42,0,0,0,3.58-1.82,7.93,7.93,0,0,0,2.41-3.65,13.42,13.42,0,0,0,.41-6.08,32.457,32.457,0,0,0-3.64-1.43,24.25,24.25,0,0,0-7.92-1.1,10.41,10.41,0,0,0-7.38,3.23C244.94,93.67,243.92,97,244,101.81Z" transform="translate(-0.6)"/>
                <path id="Path_100" data-name="Path 100" class="cls-1" d="M244,101.81s.37.07,1,.21,1.47.31,2.52.48,2.3.29,3.59.42a28.259,28.259,0,0,0,4.1.12,19.82,19.82,0,0,0,4.12-.61,9.42,9.42,0,0,0,3.58-1.82,7.93,7.93,0,0,0,2.41-3.65,13.42,13.42,0,0,0,.41-6.08,32.457,32.457,0,0,0-3.64-1.43,24.25,24.25,0,0,0-7.92-1.1,10.41,10.41,0,0,0-7.38,3.23C244.94,93.67,243.92,97,244,101.81Z" transform="translate(-0.6)"/>
                <path id="Path_101" data-name="Path 101" class="cls-1" d="M260.12,119.58s1.42.65,3.48,1.52c1,.42,2.29.87,3.65,1.29a30.367,30.367,0,0,0,4.24,1.13c3,.52,6,.68,8.7-.64a8.62,8.62,0,0,0,3.48-3.22,14.371,14.371,0,0,0,2-6.28A32.464,32.464,0,0,0,282.2,111a34.41,34.41,0,0,0-3.72-1.82c-.68-.28-1.39-.54-2.11-.77a18.87,18.87,0,0,0-2.25-.5,11.1,11.1,0,0,0-8.52,1.6,11.27,11.27,0,0,0-3.24,3.81,23.72,23.72,0,0,0-2.24,6.26Z" transform="translate(-0.6)"/>
                <path id="Path_102" data-name="Path 102" class="cls-1" d="M260.12,119.58s1.42.65,3.48,1.52c1,.42,2.29.87,3.65,1.29a30.367,30.367,0,0,0,4.24,1.13c3,.52,6,.68,8.7-.64a8.62,8.62,0,0,0,3.48-3.22,14.371,14.371,0,0,0,2-6.28A32.464,32.464,0,0,0,282.2,111a34.41,34.41,0,0,0-3.72-1.82c-.68-.28-1.39-.54-2.11-.77a18.87,18.87,0,0,0-2.25-.5,11.1,11.1,0,0,0-8.52,1.6,11.27,11.27,0,0,0-3.24,3.81,23.72,23.72,0,0,0-2.24,6.26Z" transform="translate(-0.6)"/>
                <path id="Path_103" data-name="Path 103" class="cls-1" d="M273.62,139.9s.3.25.83.65l2.2,1.64c.91.66,2,1.39,3.23,2.11a34.314,34.314,0,0,0,3.85,2.09c2.79,1.22,5.73,2.07,8.6,1.43a8.64,8.64,0,0,0,4.14-2.3,12.119,12.119,0,0,0,1.86-2.34,18.651,18.651,0,0,0,1.55-3.29s-.26-.35-.74-.93a25.432,25.432,0,0,0-2.05-2.23,24.46,24.46,0,0,0-7.11-4.91,11,11,0,0,0-8.66-.44,11.2,11.2,0,0,0-4,2.94,24,24,0,0,0-3.7,5.58Z" transform="translate(-0.6)"/>
                <path id="Path_104" data-name="Path 104" class="cls-1" d="M273.62,139.9s.3.25.83.65l2.2,1.64c.91.66,2,1.39,3.23,2.11a34.314,34.314,0,0,0,3.85,2.09c2.79,1.22,5.73,2.07,8.6,1.43a8.64,8.64,0,0,0,4.14-2.3,12.119,12.119,0,0,0,1.86-2.34,18.651,18.651,0,0,0,1.55-3.29s-.26-.35-.74-.93a25.432,25.432,0,0,0-2.05-2.23,24.46,24.46,0,0,0-7.11-4.91,11,11,0,0,0-8.66-.44,11.2,11.2,0,0,0-4,2.94,24,24,0,0,0-3.7,5.58Z" transform="translate(-0.6)"/>
                <path id="Path_105" data-name="Path 105" class="cls-1" d="M281.9,162.79s.23.31.65.83,1.07,1.24,1.77,2.11a45.449,45.449,0,0,0,5.88,5.77c2.36,1.85,5.13,3.37,8,3.43a8.69,8.69,0,0,0,4.58-1.26,15.07,15.07,0,0,0,4.62-4.66s-.17-.41-.49-1.08a20.708,20.708,0,0,0-1.5-2.65,34,34,0,0,0-2.42-3.34,19.941,19.941,0,0,0-3.3-3.12,13.71,13.71,0,0,0-3.91-2.11,9.74,9.74,0,0,0-4.41-.37C288.35,156.79,285.3,158.8,281.9,162.79Z" transform="translate(-0.6)"/>
                <path id="Path_106" data-name="Path 106" class="cls-1" d="M281.9,162.79s.23.31.65.83,1.07,1.24,1.77,2.11a45.449,45.449,0,0,0,5.88,5.77c2.36,1.85,5.13,3.37,8,3.43a8.69,8.69,0,0,0,4.58-1.26,15.07,15.07,0,0,0,4.62-4.66s-.17-.41-.49-1.08a20.708,20.708,0,0,0-1.5-2.65,34,34,0,0,0-2.42-3.34,19.941,19.941,0,0,0-3.3-3.12,13.71,13.71,0,0,0-3.91-2.11,9.74,9.74,0,0,0-4.41-.37C288.35,156.79,285.3,158.8,281.9,162.79Z" transform="translate(-0.6)"/>
                <path id="Path_107" data-name="Path 107" class="cls-1" d="M284.55,187.06a35.164,35.164,0,0,0,1.64,3.44c.57,1,1.13,2.16,1.87,3.36a34,34,0,0,0,2.53,3.64c1.81,2.35,4.12,4.47,7,5.2s6.27.07,10.37-3.6a35.164,35.164,0,0,0-1.1-4.1,24,24,0,0,0-4-7.62,12.67,12.67,0,0,0-3.35-3,9.63,9.63,0,0,0-4.18-1.4C292.22,182.73,288.74,184,284.55,187.06Z" transform="translate(-0.6)"/>
                <path id="Path_108" data-name="Path 108" class="cls-1" d="M284.55,187.06a35.164,35.164,0,0,0,1.64,3.44c.57,1,1.13,2.16,1.87,3.36a34,34,0,0,0,2.53,3.64c1.81,2.35,4.12,4.47,7,5.2s6.27.07,10.37-3.6a35.164,35.164,0,0,0-1.1-4.1,24,24,0,0,0-4-7.62,12.67,12.67,0,0,0-3.35-3,9.63,9.63,0,0,0-4.18-1.4C292.22,182.73,288.74,184,284.55,187.06Z" transform="translate(-0.6)"/>
                <path id="Path_109" data-name="Path 109" class="cls-1" d="M281.46,211.27s.09.39.19,1,.3,1.57.57,2.67a46.561,46.561,0,0,0,2.63,7.82c1.28,2.73,2.93,5.31,5.55,6.71a8.59,8.59,0,0,0,4.63,1,12.491,12.491,0,0,0,2.93-.55,15.91,15.91,0,0,0,3.35-1.46,35,35,0,0,0-.06-4.23,24.556,24.556,0,0,0-.66-4.08,20.749,20.749,0,0,0-1.47-4.27,11.22,11.22,0,0,0-6.29-6C290,208.88,286.19,209.24,281.46,211.27Z" transform="translate(-0.6)"/>
                <path id="Path_110" data-name="Path 110" class="cls-1" d="M281.46,211.27s.09.39.19,1,.3,1.57.57,2.67a46.561,46.561,0,0,0,2.63,7.82c1.28,2.73,2.93,5.31,5.55,6.71a8.59,8.59,0,0,0,4.63,1,12.491,12.491,0,0,0,2.93-.55,15.91,15.91,0,0,0,3.35-1.46,35,35,0,0,0-.06-4.23,24.556,24.556,0,0,0-.66-4.08,20.749,20.749,0,0,0-1.47-4.27,11.22,11.22,0,0,0-6.29-6C290,208.88,286.19,209.24,281.46,211.27Z" transform="translate(-0.6)"/>
                <path id="Path_111" data-name="Path 111" class="cls-1" d="M272.72,234v1.06c0,.67-.09,1.6-.08,2.73s.06,2.46.15,3.86a30.552,30.552,0,0,0,.53,4.36,21.681,21.681,0,0,0,1.3,4.29,10.34,10.34,0,0,0,2.51,3.55,8.6,8.6,0,0,0,4.27,2,14.47,14.47,0,0,0,6.57-.48,34.867,34.867,0,0,0,1-4.11,30.855,30.855,0,0,0,.31-4.13,18.731,18.731,0,0,0-.42-4.51,11.12,11.12,0,0,0-4.65-7.32C281.58,233.71,277.82,233.16,272.72,234Z" transform="translate(-0.6)"/>
                <path id="Path_112" data-name="Path 112" class="cls-1" d="M272.72,234v1.06c0,.67-.09,1.6-.08,2.73s.06,2.46.15,3.86a30.552,30.552,0,0,0,.53,4.36,21.681,21.681,0,0,0,1.3,4.29,10.34,10.34,0,0,0,2.51,3.55,8.6,8.6,0,0,0,4.27,2,14.47,14.47,0,0,0,6.57-.48,34.867,34.867,0,0,0,1-4.11,30.855,30.855,0,0,0,.31-4.13,18.731,18.731,0,0,0-.42-4.51,11.12,11.12,0,0,0-4.65-7.32C281.58,233.71,277.82,233.16,272.72,234Z" transform="translate(-0.6)"/>
                <path id="Path_113" data-name="Path 113" class="cls-1" d="M258.84,254.06s-.45,1.49-1,3.66c-.27,1.09-.54,2.4-.76,3.8a30.442,30.442,0,0,0-.51,4.36,21.592,21.592,0,0,0,.26,4.48,10.31,10.31,0,0,0,1.6,4,8.61,8.61,0,0,0,3.68,3,14.42,14.42,0,0,0,6.5,1.08,26.929,26.929,0,0,0,3.18-7.71,18.361,18.361,0,0,0,.64-4.49,11.06,11.06,0,0,0-2.79-8.21C267.52,255.86,264,254.46,258.84,254.06Z" transform="translate(-0.6)"/>
                <path id="Path_114" data-name="Path 114" class="cls-1" d="M258.84,254.06s-.45,1.49-1,3.66c-.27,1.09-.54,2.4-.76,3.8a30.442,30.442,0,0,0-.51,4.36,21.592,21.592,0,0,0,.26,4.48,10.31,10.31,0,0,0,1.6,4,8.61,8.61,0,0,0,3.68,3,14.42,14.42,0,0,0,6.5,1.08,26.929,26.929,0,0,0,3.18-7.71,18.361,18.361,0,0,0,.64-4.49,11.06,11.06,0,0,0-2.79-8.21C267.52,255.86,264,254.46,258.84,254.06Z" transform="translate(-0.6)"/>
                <path id="Path_115" data-name="Path 115" class="cls-1" d="M240.62,270.32s-.2.33-.53.92-.79,1.4-1.31,2.41-1.09,2.19-1.63,3.51a31.307,31.307,0,0,0-1.52,4.11c-.8,2.94-1.24,6-.18,8.72a8.63,8.63,0,0,0,2.87,3.77,12.641,12.641,0,0,0,2.59,1.51,18.15,18.15,0,0,0,3.48,1.06,30.13,30.13,0,0,0,2.73-3.22,34.375,34.375,0,0,0,2.17-3.53c.35-.65.67-1.33,1-2a20.944,20.944,0,0,0,.71-2.19c.77-3,.79-6-.79-8.64a11.24,11.24,0,0,0-3.49-3.58A23.781,23.781,0,0,0,240.62,270.32Z" transform="translate(-0.6)"/>
                <path id="Path_116" data-name="Path 116" class="cls-1" d="M240.62,270.32s-.2.33-.53.92-.79,1.4-1.31,2.41-1.09,2.19-1.63,3.51a31.307,31.307,0,0,0-1.52,4.11c-.8,2.94-1.24,6-.18,8.72a8.63,8.63,0,0,0,2.87,3.77,12.641,12.641,0,0,0,2.59,1.51,18.15,18.15,0,0,0,3.48,1.06,30.13,30.13,0,0,0,2.73-3.22,34.375,34.375,0,0,0,2.17-3.53c.35-.65.67-1.33,1-2a20.944,20.944,0,0,0,.71-2.19c.77-3,.79-6-.79-8.64a11.24,11.24,0,0,0-3.49-3.58A23.781,23.781,0,0,0,240.62,270.32Z" transform="translate(-0.6)"/>
                <path id="Path_117" data-name="Path 117" class="cls-1" d="M219.13,281.81s-.28.27-.73.76l-1.83,2c-.74.84-1.58,1.86-2.41,3a39.1,39.1,0,0,0-2.45,3.64,19.458,19.458,0,0,0-1.81,4.13,10.22,10.22,0,0,0-.43,4.3c.38,2.89,2.29,6,7.17,8.27,0,0,.38-.23,1-.65a22.066,22.066,0,0,0,2.42-1.84,24.191,24.191,0,0,0,5.57-6.6,11,11,0,0,0,1.26-8.58,11.22,11.22,0,0,0-2.54-4.3,24.38,24.38,0,0,0-5.22-4.13Z" transform="translate(-0.6)"/>
                <path id="Path_118" data-name="Path 118" class="cls-1" d="M219.13,281.81s-.28.27-.73.76l-1.83,2c-.74.84-1.58,1.86-2.41,3a39.1,39.1,0,0,0-2.45,3.64,19.458,19.458,0,0,0-1.81,4.13,10.22,10.22,0,0,0-.43,4.3c.38,2.89,2.29,6,7.17,8.27,0,0,.38-.23,1-.65a22.066,22.066,0,0,0,2.42-1.84,24.191,24.191,0,0,0,5.57-6.6,11,11,0,0,0,1.26-8.58,11.22,11.22,0,0,0-2.54-4.3,24.38,24.38,0,0,0-5.22-4.13Z" transform="translate(-0.6)"/>
                <path id="Path_119" data-name="Path 119" class="cls-1" d="M195.55,287.88s-1.32.78-3.16,2.14a35.179,35.179,0,0,0-3.07,2.31c-1.07.91-2.2,1.94-3.25,3-2.07,2.15-3.85,4.76-4.18,7.69s.82,6.21,5,9.71c0,0,.42-.13,1.12-.38a29.7,29.7,0,0,0,2.78-1.26,33.833,33.833,0,0,0,3.55-2.07,23,23,0,0,0,3.42-3,10.94,10.94,0,0,0,3.26-8.05,11.249,11.249,0,0,0-1.45-4.78,18.522,18.522,0,0,0-1.69-2.54,30.2,30.2,0,0,0-2.33-2.77Z" transform="translate(-0.6)"/>
                <path id="Path_120" data-name="Path 120" class="cls-1" d="M195.55,287.88s-1.32.78-3.16,2.14a35.179,35.179,0,0,0-3.07,2.31c-1.07.91-2.2,1.94-3.25,3-2.07,2.15-3.85,4.76-4.18,7.69s.82,6.21,5,9.71c0,0,.42-.13,1.12-.38a29.7,29.7,0,0,0,2.78-1.26,33.833,33.833,0,0,0,3.55-2.07,23,23,0,0,0,3.42-3,10.94,10.94,0,0,0,3.26-8.05,11.249,11.249,0,0,0-1.45-4.78,18.522,18.522,0,0,0-1.69-2.54,30.2,30.2,0,0,0-2.33-2.77Z" transform="translate(-0.6)"/>
                <path id="Path_121" data-name="Path 121" class="cls-1" d="M181.85,59.48A25.181,25.181,0,0,1,184.53,58a24.23,24.23,0,0,1,6.72-2.32,21.431,21.431,0,0,1,4.15-.38,15.69,15.69,0,0,1,4.17.78,12.37,12.37,0,0,1,2,.86,10.589,10.589,0,0,1,1.79,1.32,12.18,12.18,0,0,1,2.86,3.91,24.138,24.138,0,0,1-2.57,1.17,28,28,0,0,1-2.75.93,26.168,26.168,0,0,1-3.36.83,20.059,20.059,0,0,1-3.72.26,13.68,13.68,0,0,1-3.92-.55,16.457,16.457,0,0,1-2-.75,13.92,13.92,0,0,1-2-1.05,18.9,18.9,0,0,1-4.05-3.53Z" transform="translate(-0.6)"/>
                <path id="Path_122" data-name="Path 122" class="cls-1" d="M181.85,59.48A25.181,25.181,0,0,1,184.53,58a24.23,24.23,0,0,1,6.72-2.32,21.431,21.431,0,0,1,4.15-.38,15.69,15.69,0,0,1,4.17.78,12.37,12.37,0,0,1,2,.86,10.589,10.589,0,0,1,1.79,1.32,12.18,12.18,0,0,1,2.86,3.91,24.138,24.138,0,0,1-2.57,1.17,28,28,0,0,1-2.75.93,26.168,26.168,0,0,1-3.36.83,20.059,20.059,0,0,1-3.72.26,13.68,13.68,0,0,1-3.92-.55,16.457,16.457,0,0,1-2-.75,13.92,13.92,0,0,1-2-1.05,18.9,18.9,0,0,1-4.05-3.53Z" transform="translate(-0.6)"/>
                <path id="Path_123" data-name="Path 123" class="cls-1" d="M130.39,78.26a26.641,26.641,0,0,1-2.71-.6,27.281,27.281,0,0,1-5.57-1.94,9.26,9.26,0,0,1-4.51-4.06,5.88,5.88,0,0,1-.46-3.24,10.15,10.15,0,0,1,1.66-4.24,24.749,24.749,0,0,1,2.92.18A17.13,17.13,0,0,1,127.5,66a7.66,7.66,0,0,1,4.14,4.34C132.3,72.36,132,74.93,130.39,78.26Z" transform="translate(-0.6)"/>
                <path id="Path_124" data-name="Path 124" class="cls-1" d="M130.39,78.26a26.641,26.641,0,0,1-2.71-.6,27.281,27.281,0,0,1-5.57-1.94,9.26,9.26,0,0,1-4.51-4.06,5.88,5.88,0,0,1-.46-3.24,10.15,10.15,0,0,1,1.66-4.24,24.749,24.749,0,0,1,2.92.18A17.13,17.13,0,0,1,127.5,66a7.66,7.66,0,0,1,4.14,4.34C132.3,72.36,132,74.93,130.39,78.26Z" transform="translate(-0.6)"/>
                <path id="Path_125" data-name="Path 125" class="cls-1" d="M112,88.57a32,32,0,0,1-3.39-.11,33.88,33.88,0,0,1-7.2-1.06,11.49,11.49,0,0,1-6.54-3.8c-1.52-2-2.1-5-.53-9.51a30.938,30.938,0,0,1,3.66-.5,23.84,23.84,0,0,1,3.58-.06,20.731,20.731,0,0,1,3.91.66,8.85,8.85,0,0,1,7.21,8.61,15.541,15.541,0,0,1-.12,2.65A25.2,25.2,0,0,1,112,88.57Z" transform="translate(-0.6)"/>
                <path id="Path_126" data-name="Path 126" class="cls-1" d="M112,88.57a32,32,0,0,1-3.39-.11,33.88,33.88,0,0,1-7.2-1.06,11.49,11.49,0,0,1-6.54-3.8c-1.52-2-2.1-5-.53-9.51a30.938,30.938,0,0,1,3.66-.5,23.84,23.84,0,0,1,3.58-.06,20.731,20.731,0,0,1,3.91.66,8.85,8.85,0,0,1,7.21,8.61,15.541,15.541,0,0,1-.12,2.65A25.2,25.2,0,0,1,112,88.57Z" transform="translate(-0.6)"/>
                <path id="Path_127" data-name="Path 127" class="cls-1" d="M93,101.86l-1,.2c-.6.14-1.47.31-2.52.47s-2.29.29-3.59.41a28.191,28.191,0,0,1-4.09.12c-2.84-.17-5.6-.67-7.69-2.45A8,8,0,0,1,71.76,97a13.4,13.4,0,0,1-.41-6.08A32.39,32.39,0,0,1,75,89.46a24.24,24.24,0,0,1,7.92-1.09,10.4,10.4,0,0,1,7.37,3.23C92.14,93.71,93.16,97.06,93,101.86Z" transform="translate(-0.6)"/>
                <path id="Path_128" data-name="Path 128" class="cls-1" d="M93,101.86l-1,.2c-.6.14-1.47.31-2.52.47s-2.29.29-3.59.41a28.191,28.191,0,0,1-4.09.12c-2.84-.17-5.6-.67-7.69-2.45A8,8,0,0,1,71.76,97a13.4,13.4,0,0,1-.41-6.08A32.39,32.39,0,0,1,75,89.46a24.24,24.24,0,0,1,7.92-1.09,10.4,10.4,0,0,1,7.37,3.23C92.14,93.71,93.16,97.06,93,101.86Z" transform="translate(-0.6)"/>
                <path id="Path_129" data-name="Path 129" class="cls-1" d="M76.82,119.58s-1.42.65-3.48,1.52c-1,.42-2.29.87-3.65,1.29a30.37,30.37,0,0,1-4.24,1.13c-3,.52-6,.68-8.7-.64a8.62,8.62,0,0,1-3.48-3.22,14.37,14.37,0,0,1-2-6.28A32.47,32.47,0,0,1,54.74,111a34.412,34.412,0,0,1,3.72-1.82c.68-.28,1.39-.54,2.11-.77a18.869,18.869,0,0,1,2.25-.5,11.1,11.1,0,0,1,8.52,1.6,11.27,11.27,0,0,1,3.24,3.81A23.72,23.72,0,0,1,76.82,119.58Z" transform="translate(-0.6)"/>
                <path id="Path_130" data-name="Path 130" class="cls-1" d="M76.82,119.58s-1.42.65-3.48,1.52c-1,.42-2.29.87-3.65,1.29a30.37,30.37,0,0,1-4.24,1.13c-3,.52-6,.68-8.7-.64a8.62,8.62,0,0,1-3.48-3.22,14.37,14.37,0,0,1-2-6.28A32.47,32.47,0,0,1,54.74,111a34.412,34.412,0,0,1,3.72-1.82c.68-.28,1.39-.54,2.11-.77a18.869,18.869,0,0,1,2.25-.5,11.1,11.1,0,0,1,8.52,1.6,11.27,11.27,0,0,1,3.24,3.81A23.72,23.72,0,0,1,76.82,119.58Z" transform="translate(-0.6)"/>
                <path id="Path_131" data-name="Path 131" class="cls-1" d="M63.33,139.9s-.3.25-.83.65l-2.2,1.64c-.91.66-2,1.39-3.23,2.11a34.308,34.308,0,0,1-3.85,2.09c-2.79,1.22-5.73,2.07-8.6,1.43a8.64,8.64,0,0,1-4.14-2.3,12.12,12.12,0,0,1-1.86-2.34,18.65,18.65,0,0,1-1.55-3.29s.26-.35.74-.93a25.431,25.431,0,0,1,2.05-2.23A24.46,24.46,0,0,1,47,131.82a11,11,0,0,1,8.66-.44,11.2,11.2,0,0,1,4,2.94,24,24,0,0,1,3.67,5.58Z" transform="translate(-0.6)"/>
                <path id="Path_132" data-name="Path 132" class="cls-1" d="M63.33,139.9s-.3.25-.83.65l-2.2,1.64c-.91.66-2,1.39-3.23,2.11a34.308,34.308,0,0,1-3.85,2.09c-2.79,1.22-5.73,2.07-8.6,1.43a8.64,8.64,0,0,1-4.14-2.3,12.12,12.12,0,0,1-1.86-2.34,18.65,18.65,0,0,1-1.55-3.29s.26-.35.74-.93a25.431,25.431,0,0,1,2.05-2.23A24.46,24.46,0,0,1,47,131.82a11,11,0,0,1,8.66-.44,11.2,11.2,0,0,1,4,2.94,24,24,0,0,1,3.67,5.58Z" transform="translate(-0.6)"/>
                <path id="Path_133" data-name="Path 133" class="cls-1" d="M55,162.79s-.23.31-.65.83-1.07,1.24-1.77,2.11a45.451,45.451,0,0,1-5.88,5.77c-2.36,1.85-5.13,3.37-8,3.43a8.69,8.69,0,0,1-4.58-1.26A15.07,15.07,0,0,1,29.51,169s.17-.41.49-1.08a20.71,20.71,0,0,1,1.5-2.65,34,34,0,0,1,2.42-3.34,19.94,19.94,0,0,1,3.3-3.12,13.71,13.71,0,0,1,3.91-2.11,9.74,9.74,0,0,1,4.41-.37C48.59,156.79,51.64,158.8,55,162.79Z" transform="translate(-0.6)"/>
                <path id="Path_134" data-name="Path 134" class="cls-1" d="M55,162.79s-.23.31-.65.83-1.07,1.24-1.77,2.11a45.451,45.451,0,0,1-5.88,5.77c-2.36,1.85-5.13,3.37-8,3.43a8.69,8.69,0,0,1-4.58-1.26A15.07,15.07,0,0,1,29.51,169s.17-.41.49-1.08a20.71,20.71,0,0,1,1.5-2.65,34,34,0,0,1,2.42-3.34,19.94,19.94,0,0,1,3.3-3.12,13.71,13.71,0,0,1,3.91-2.11,9.74,9.74,0,0,1,4.41-.37C48.59,156.79,51.64,158.8,55,162.79Z" transform="translate(-0.6)"/>
                <path id="Path_135" data-name="Path 135" class="cls-1" d="M52.39,187.06a35.16,35.16,0,0,1-1.64,3.44c-.57,1-1.13,2.16-1.87,3.36a34,34,0,0,1-2.53,3.64c-1.81,2.35-4.12,4.47-7,5.2s-6.27.07-10.37-3.6a35.159,35.159,0,0,1,1.1-4.1,24,24,0,0,1,4-7.62,12.67,12.67,0,0,1,3.35-3,9.63,9.63,0,0,1,4.18-1.4C44.73,182.73,48.2,184,52.39,187.06Z" transform="translate(-0.6)"/>
                <path id="Path_136" data-name="Path 136" class="cls-1" d="M52.39,187.06a35.16,35.16,0,0,1-1.64,3.44c-.57,1-1.13,2.16-1.87,3.36a34,34,0,0,1-2.53,3.64c-1.81,2.35-4.12,4.47-7,5.2s-6.27.07-10.37-3.6a35.159,35.159,0,0,1,1.1-4.1,24,24,0,0,1,4-7.62,12.67,12.67,0,0,1,3.35-3,9.63,9.63,0,0,1,4.18-1.4C44.73,182.73,48.2,184,52.39,187.06Z" transform="translate(-0.6)"/>
                <path id="Path_137" data-name="Path 137" class="cls-1" d="M55.48,211.27s-.09.39-.19,1-.3,1.57-.57,2.67a46.56,46.56,0,0,1-2.63,7.82c-1.28,2.73-2.93,5.31-5.55,6.71a8.59,8.59,0,0,1-4.63,1,12.491,12.491,0,0,1-2.93-.55,15.911,15.911,0,0,1-3.35-1.46,35,35,0,0,1,.06-4.23,24.561,24.561,0,0,1,.66-4.08,20.75,20.75,0,0,1,1.47-4.27,11.22,11.22,0,0,1,6.29-6C47,208.88,50.75,209.24,55.48,211.27Z" transform="translate(-0.6)"/>
                <path id="Path_138" data-name="Path 138" class="cls-1" d="M55.48,211.27s-.09.39-.19,1-.3,1.57-.57,2.67a46.56,46.56,0,0,1-2.63,7.82c-1.28,2.73-2.93,5.31-5.55,6.71a8.59,8.59,0,0,1-4.63,1,12.491,12.491,0,0,1-2.93-.55,15.911,15.911,0,0,1-3.35-1.46,35,35,0,0,1,.06-4.23,24.561,24.561,0,0,1,.66-4.08,20.75,20.75,0,0,1,1.47-4.27,11.22,11.22,0,0,1,6.29-6C47,208.88,50.75,209.24,55.48,211.27Z" transform="translate(-0.6)"/>
                <path id="Path_139" data-name="Path 139" class="cls-1" d="M64.22,234v1.06c0,.67.09,1.6.08,2.73s-.06,2.46-.15,3.86a30.55,30.55,0,0,1-.53,4.36,21.681,21.681,0,0,1-1.3,4.29,10.34,10.34,0,0,1-2.51,3.55,8.6,8.6,0,0,1-4.27,2,14.47,14.47,0,0,1-6.57-.48,34.873,34.873,0,0,1-1-4.11,30.86,30.86,0,0,1-.31-4.13,18.73,18.73,0,0,1,.42-4.51,11.12,11.12,0,0,1,4.65-7.32C55.36,233.71,59.12,233.16,64.22,234Z" transform="translate(-0.6)"/>
                <path id="Path_140" data-name="Path 140" class="cls-1" d="M64.22,234v1.06c0,.67.09,1.6.08,2.73s-.06,2.46-.15,3.86a30.55,30.55,0,0,1-.53,4.36,21.681,21.681,0,0,1-1.3,4.29,10.34,10.34,0,0,1-2.51,3.55,8.6,8.6,0,0,1-4.27,2,14.47,14.47,0,0,1-6.57-.48,34.873,34.873,0,0,1-1-4.11,30.86,30.86,0,0,1-.31-4.13,18.73,18.73,0,0,1,.42-4.51,11.12,11.12,0,0,1,4.65-7.32C55.36,233.71,59.12,233.16,64.22,234Z" transform="translate(-0.6)"/>
                <path id="Path_141" data-name="Path 141" class="cls-1" d="M78.1,254.06s.45,1.49,1,3.66c.27,1.09.54,2.4.76,3.8a30.442,30.442,0,0,1,.51,4.36,21.59,21.59,0,0,1-.26,4.48,10.31,10.31,0,0,1-1.6,4,8.61,8.61,0,0,1-3.68,3,14.42,14.42,0,0,1-6.5,1.08,26.93,26.93,0,0,1-3.18-7.71,18.36,18.36,0,0,1-.64-4.49,11.06,11.06,0,0,1,2.79-8.21C69.42,255.86,72.93,254.46,78.1,254.06Z" transform="translate(-0.6)"/>
                <path id="Path_142" data-name="Path 142" class="cls-1" d="M78.1,254.06s.45,1.49,1,3.66c.27,1.09.54,2.4.76,3.8a30.442,30.442,0,0,1,.51,4.36,21.59,21.59,0,0,1-.26,4.48,10.31,10.31,0,0,1-1.6,4,8.61,8.61,0,0,1-3.68,3,14.42,14.42,0,0,1-6.5,1.08,26.93,26.93,0,0,1-3.18-7.71,18.36,18.36,0,0,1-.64-4.49,11.06,11.06,0,0,1,2.79-8.21C69.42,255.86,72.93,254.46,78.1,254.06Z" transform="translate(-0.6)"/>
                <path id="Path_143" data-name="Path 143" class="cls-1" d="M96.32,270.32s.2.33.53.92.79,1.4,1.31,2.41,1.09,2.19,1.63,3.51a31.311,31.311,0,0,1,1.52,4.11c.8,2.94,1.24,6,.18,8.72a8.63,8.63,0,0,1-2.87,3.77A12.639,12.639,0,0,1,96,295.27a18.148,18.148,0,0,1-3.48,1.06,30.13,30.13,0,0,1-2.73-3.22,34.372,34.372,0,0,1-2.17-3.53c-.35-.65-.67-1.33-1-2a20.935,20.935,0,0,1-.71-2.19c-.77-3-.79-6,.79-8.64a11.24,11.24,0,0,1,3.49-3.58A23.779,23.779,0,0,1,96.32,270.32Z" transform="translate(-0.6)"/>
                <path id="Path_144" data-name="Path 144" class="cls-1" d="M96.32,270.32s.2.33.53.92.79,1.4,1.31,2.41,1.09,2.19,1.63,3.51a31.311,31.311,0,0,1,1.52,4.11c.8,2.94,1.24,6,.18,8.72a8.63,8.63,0,0,1-2.87,3.77A12.639,12.639,0,0,1,96,295.27a18.148,18.148,0,0,1-3.48,1.06,30.13,30.13,0,0,1-2.73-3.22,34.372,34.372,0,0,1-2.17-3.53c-.35-.65-.67-1.33-1-2a20.935,20.935,0,0,1-.71-2.19c-.77-3-.79-6,.79-8.64a11.24,11.24,0,0,1,3.49-3.58A23.779,23.779,0,0,1,96.32,270.32Z" transform="translate(-0.6)"/>
                <path id="Path_145" data-name="Path 145" class="cls-1" d="M117.81,281.81s.28.27.73.76l1.83,2c.74.84,1.58,1.86,2.41,3a39.113,39.113,0,0,1,2.45,3.64,19.46,19.46,0,0,1,1.81,4.13,10.22,10.22,0,0,1,.43,4.3c-.38,2.89-2.29,6-7.17,8.27,0,0-.38-.23-1-.65a22.066,22.066,0,0,1-2.42-1.84,24.19,24.19,0,0,1-5.57-6.6,11,11,0,0,1-1.26-8.58,11.22,11.22,0,0,1,2.54-4.3,24.38,24.38,0,0,1,5.22-4.13Z" transform="translate(-0.6)"/>
                <path id="Path_146" data-name="Path 146" class="cls-1" d="M117.81,281.81s.28.27.73.76l1.83,2c.74.84,1.58,1.86,2.41,3a39.113,39.113,0,0,1,2.45,3.64,19.46,19.46,0,0,1,1.81,4.13,10.22,10.22,0,0,1,.43,4.3c-.38,2.89-2.29,6-7.17,8.27,0,0-.38-.23-1-.65a22.066,22.066,0,0,1-2.42-1.84,24.19,24.19,0,0,1-5.57-6.6,11,11,0,0,1-1.26-8.58,11.22,11.22,0,0,1,2.54-4.3,24.38,24.38,0,0,1,5.22-4.13Z" transform="translate(-0.6)"/>
                <path id="Path_147" data-name="Path 147" class="cls-1" d="M141.39,287.88s1.32.78,3.16,2.14a35.179,35.179,0,0,1,3.07,2.31c1.07.91,2.2,1.94,3.25,3,2.07,2.15,3.85,4.76,4.18,7.69s-.82,6.21-5,9.71c0,0-.42-.13-1.12-.38a29.707,29.707,0,0,1-2.78-1.26,33.827,33.827,0,0,1-3.55-2.07,23,23,0,0,1-3.42-3,10.94,10.94,0,0,1-3.26-8.05,11.25,11.25,0,0,1,1.45-4.78,18.521,18.521,0,0,1,1.69-2.54A30.2,30.2,0,0,1,141.39,287.88Z" transform="translate(-0.6)"/>
                <path id="Path_148" data-name="Path 148" class="cls-1" d="M141.39,287.88s1.32.78,3.16,2.14a35.179,35.179,0,0,1,3.07,2.31c1.07.91,2.2,1.94,3.25,3,2.07,2.15,3.85,4.76,4.18,7.69s-.82,6.21-5,9.71c0,0-.42-.13-1.12-.38a29.707,29.707,0,0,1-2.78-1.26,33.827,33.827,0,0,1-3.55-2.07,23,23,0,0,1-3.42-3,10.94,10.94,0,0,1-3.26-8.05,11.25,11.25,0,0,1,1.45-4.78,18.521,18.521,0,0,1,1.69-2.54A30.2,30.2,0,0,1,141.39,287.88Z" transform="translate(-0.6)"/>
                <path id="Path_149" data-name="Path 149" class="cls-1" d="M122.14,42.05s-1.29.72-3,1.91a25.91,25.91,0,0,0-5.1,4.9,8.142,8.142,0,0,0-2,6.09,5.43,5.43,0,0,0,1.59,2.85,13.69,13.69,0,0,0,3.93,2.51,28.831,28.831,0,0,0,2.49-1.72,31.88,31.88,0,0,0,4.67-4.26,8.68,8.68,0,0,0,2.42-5.82C127.11,46.41,125.77,44.14,122.14,42.05Z" transform="translate(-0.6)"/>
                <path id="Path_150" data-name="Path 150" class="cls-1" d="M122.14,42.05s-1.29.72-3,1.91a25.91,25.91,0,0,0-5.1,4.9,8.142,8.142,0,0,0-2,6.09,5.43,5.43,0,0,0,1.59,2.85,13.69,13.69,0,0,0,3.93,2.51,28.831,28.831,0,0,0,2.49-1.72,31.88,31.88,0,0,0,4.67-4.26,8.68,8.68,0,0,0,2.42-5.82C127.11,46.41,125.77,44.14,122.14,42.05Z" transform="translate(-0.6)"/>
                <path id="Path_151" data-name="Path 151" class="cls-1" d="M94.1,48.21a44.047,44.047,0,0,0-3.24,3.11,32.71,32.71,0,0,0-5.14,7.36c-1.28,2.83-1.83,5.69-.82,8s3.55,4.17,8.18,5.11a35.819,35.819,0,0,0,2.61-2.71c.74-.83,1.54-1.86,2.36-2.93a26.7,26.7,0,0,0,2.31-3.47c1.34-2.51,2.26-5.15,1.63-7.72a7.47,7.47,0,0,0-2.29-3.71,12.4,12.4,0,0,0-2.33-1.68,19.5,19.5,0,0,0-3.27-1.36Z" transform="translate(-0.6)"/>
                <path id="Path_152" data-name="Path 152" class="cls-1" d="M94.1,48.21a44.047,44.047,0,0,0-3.24,3.11,32.71,32.71,0,0,0-5.14,7.36c-1.28,2.83-1.83,5.69-.82,8s3.55,4.17,8.18,5.11a35.819,35.819,0,0,0,2.61-2.71c.74-.83,1.54-1.86,2.36-2.93a26.7,26.7,0,0,0,2.31-3.47c1.34-2.51,2.26-5.15,1.63-7.72a7.47,7.47,0,0,0-2.29-3.71,12.4,12.4,0,0,0-2.33-1.68,19.5,19.5,0,0,0-3.27-1.36Z" transform="translate(-0.6)"/>
                <path id="Path_153" data-name="Path 153" class="cls-1" d="M64.95,64l-.22.28a9.064,9.064,0,0,0-.58.82c-.48.72-1.14,1.73-1.84,2.95a35.708,35.708,0,0,0-2.1,4.14,30,30,0,0,0-1.54,4.76,14,14,0,0,0-.35,4.65,7.9,7.9,0,0,0,1.4,3.9A7.34,7.34,0,0,0,63.28,88a18.66,18.66,0,0,0,6.18.84,38.631,38.631,0,0,0,2-3.48,38.291,38.291,0,0,0,3.36-7.75c.87-2.85,1.17-5.87-.08-8.42S70.68,64.63,64.95,64Z" transform="translate(-0.6)"/>
                <path id="Path_154" data-name="Path 154" class="cls-1" d="M64.95,64l-.22.28a9.064,9.064,0,0,0-.58.82c-.48.72-1.14,1.73-1.84,2.95a35.708,35.708,0,0,0-2.1,4.14,30,30,0,0,0-1.54,4.76,14,14,0,0,0-.35,4.65,7.9,7.9,0,0,0,1.4,3.9A7.34,7.34,0,0,0,63.28,88a18.66,18.66,0,0,0,6.18.84,38.631,38.631,0,0,0,2-3.48,38.291,38.291,0,0,0,3.36-7.75c.87-2.85,1.17-5.87-.08-8.42S70.68,64.63,64.95,64Z" transform="translate(-0.6)"/>
                <path id="Path_155" data-name="Path 155" class="cls-1" d="M38,86.52a32.909,32.909,0,0,0-1.84,5A48.52,48.52,0,0,0,34.9,96.4a32.761,32.761,0,0,0-.44,5.45c0,3.55,1,6.88,3.25,8.76a7.92,7.92,0,0,0,4.41,1.76,20.48,20.48,0,0,0,6.72-.7s.62-1.68,1.26-4.19a41.453,41.453,0,0,0,1-4.2c.15-.77.27-1.57.37-2.38s.21-1.6.26-2.42c.21-3.23-.24-6.55-2.15-8.9S44.15,85.7,38,86.52Z" transform="translate(-0.6)"/>
                <path id="Path_156" data-name="Path 156" class="cls-1" d="M38,86.52a32.909,32.909,0,0,0-1.84,5A48.52,48.52,0,0,0,34.9,96.4a32.761,32.761,0,0,0-.44,5.45c0,3.55,1,6.88,3.25,8.76a7.92,7.92,0,0,0,4.41,1.76,20.48,20.48,0,0,0,6.72-.7s.62-1.68,1.26-4.19a41.453,41.453,0,0,0,1-4.2c.15-.77.27-1.57.37-2.38s.21-1.6.26-2.42c.21-3.23-.24-6.55-2.15-8.9S44.15,85.7,38,86.52Z" transform="translate(-0.6)"/>
                <path id="Path_157" data-name="Path 157" class="cls-1" d="M17.77,116.93s-.11.54-.25,1.47a31.9,31.9,0,0,0-.37,3.78,49.75,49.75,0,0,0,0,5.08,30.15,30.15,0,0,0,.86,5.4c.85,3.46,2.58,6.44,5.22,7.75a7.89,7.89,0,0,0,4.7.66,14.741,14.741,0,0,0,2.94-.75,25.22,25.22,0,0,0,3.44-1.52s.05-.45.1-1.21.07-1.87.13-3.15A46.19,46.19,0,0,0,34,125.3c-.57-3.2-1.77-6.31-4.18-8.15A8.56,8.56,0,0,0,25,115.49a17.65,17.65,0,0,0-7.23,1.44Z" transform="translate(-0.6)"/>
                <path id="Path_158" data-name="Path 158" class="cls-1" d="M17.77,116.93s-.11.54-.25,1.47a31.9,31.9,0,0,0-.37,3.78,49.75,49.75,0,0,0,0,5.08,30.15,30.15,0,0,0,.86,5.4c.85,3.46,2.58,6.44,5.22,7.75a7.89,7.89,0,0,0,4.7.66,14.741,14.741,0,0,0,2.94-.75,25.22,25.22,0,0,0,3.44-1.52s.05-.45.1-1.21.07-1.87.13-3.15A46.19,46.19,0,0,0,34,125.3c-.57-3.2-1.77-6.31-4.18-8.15A8.56,8.56,0,0,0,25,115.49a17.65,17.65,0,0,0-7.23,1.44Z" transform="translate(-0.6)"/>
                <path id="Path_159" data-name="Path 159" class="cls-1" d="M5.34,151.28a14.078,14.078,0,0,0,.11,1.49A33.6,33.6,0,0,0,6,156.53a34.6,34.6,0,0,0,3.32,10c1.71,3.16,4,5.63,6.9,6.28a7.86,7.86,0,0,0,4.71-.47,19.16,19.16,0,0,0,5.68-3.71s-.06-.45-.2-1.21l-.59-3.08c-.26-1.25-.61-2.7-1.08-4.21a40.161,40.161,0,0,0-1.62-4.55,18,18,0,0,0-2.47-4.13,9.23,9.23,0,0,0-3.51-2.8C14.31,147.45,10.4,147.68,5.34,151.28Z" transform="translate(-0.6)"/>
                <path id="Path_160" data-name="Path 160" class="cls-1" d="M5.34,151.28a14.078,14.078,0,0,0,.11,1.49A33.6,33.6,0,0,0,6,156.53a34.6,34.6,0,0,0,3.32,10c1.71,3.16,4,5.63,6.9,6.28a7.86,7.86,0,0,0,4.71-.47,19.16,19.16,0,0,0,5.68-3.71s-.06-.45-.2-1.21l-.59-3.08c-.26-1.25-.61-2.7-1.08-4.21a40.161,40.161,0,0,0-1.62-4.55,18,18,0,0,0-2.47-4.13,9.23,9.23,0,0,0-3.51-2.8C14.31,147.45,10.4,147.68,5.34,151.28Z" transform="translate(-0.6)"/>
                <path id="Path_161" data-name="Path 161" class="cls-1" d="M1.37,187.54a52.73,52.73,0,0,0,1.85,4.94A34.829,34.829,0,0,0,5.57,197a30.42,30.42,0,0,0,3.17,4.41c2.45,2.67,5.27,4.54,8.21,4.5s6-2,9.09-6.49a41.719,41.719,0,0,0-1.72-4,47.79,47.79,0,0,0-4.69-7.88,20.21,20.21,0,0,0-3.33-3.42,9.33,9.33,0,0,0-4.09-1.89,8.5,8.5,0,0,0-5,.72,14.17,14.17,0,0,0-2.84,1.72,19.441,19.441,0,0,0-3,2.87Z" transform="translate(-0.6)"/>
                <path id="Path_162" data-name="Path 162" class="cls-1" d="M1.37,187.54a52.73,52.73,0,0,0,1.85,4.94A34.829,34.829,0,0,0,5.57,197a30.42,30.42,0,0,0,3.17,4.41c2.45,2.67,5.27,4.54,8.21,4.5s6-2,9.09-6.49a41.719,41.719,0,0,0-1.72-4,47.79,47.79,0,0,0-4.69-7.88,20.21,20.21,0,0,0-3.33-3.42,9.33,9.33,0,0,0-4.09-1.89,8.5,8.5,0,0,0-5,.72,14.17,14.17,0,0,0-2.84,1.72,19.441,19.441,0,0,0-3,2.87Z" transform="translate(-0.6)"/>
                <path id="Path_163" data-name="Path 163" class="cls-1" d="M6,223.73A12.522,12.522,0,0,0,6.78,225c.52.79,1.28,1.88,2.21,3.1a34.341,34.341,0,0,0,7.48,7.38c2.94,2,6.21,3.16,9,2.43a7.94,7.94,0,0,0,4-2.58,14.19,14.19,0,0,0,1.73-2.5,32.889,32.889,0,0,0,1.58-3.39A42.144,42.144,0,0,0,30.15,226c-.87-1-1.75-2.13-2.85-3.26a36.879,36.879,0,0,0-3.57-3.3c-2.49-2.05-5.4-3.63-8.47-3.43S9,218.19,6,223.73Z" transform="translate(-0.6)"/>
                <path id="Path_164" data-name="Path 164" class="cls-1" d="M6,223.73A12.522,12.522,0,0,0,6.78,225c.52.79,1.28,1.88,2.21,3.1a34.341,34.341,0,0,0,7.48,7.38c2.94,2,6.21,3.16,9,2.43a7.94,7.94,0,0,0,4-2.58,14.19,14.19,0,0,0,1.73-2.5,32.889,32.889,0,0,0,1.58-3.39A42.144,42.144,0,0,0,30.15,226c-.87-1-1.75-2.13-2.85-3.26a36.879,36.879,0,0,0-3.57-3.3c-2.49-2.05-5.4-3.63-8.47-3.43S9,218.19,6,223.73Z" transform="translate(-0.6)"/>
                <path id="Path_165" data-name="Path 165" class="cls-1" d="M19.11,257.84s.38.41,1,1.06A33.425,33.425,0,0,0,23,261.38a41.739,41.739,0,0,0,4.13,3,32.66,32.66,0,0,0,4.89,2.43,15.109,15.109,0,0,0,5,1.12,8.47,8.47,0,0,0,4.4-.89,7.93,7.93,0,0,0,3.27-3.45,20.31,20.31,0,0,0,1.83-6.5,42.26,42.26,0,0,0-3.42-2.72c-1-.77-2.2-1.66-3.53-2.5a44.8,44.8,0,0,0-4.23-2.37c-2.92-1.4-6.13-2.23-9.07-1.31S20.67,251.76,19.11,257.84Z" transform="translate(-0.6)"/>
                <path id="Path_166" data-name="Path 166" class="cls-1" d="M19.11,257.84s.38.41,1,1.06A33.425,33.425,0,0,0,23,261.38a41.739,41.739,0,0,0,4.13,3,32.66,32.66,0,0,0,4.89,2.43,15.109,15.109,0,0,0,5,1.12,8.47,8.47,0,0,0,4.4-.89,7.93,7.93,0,0,0,3.27-3.45,20.31,20.31,0,0,0,1.83-6.5,42.26,42.26,0,0,0-3.42-2.72c-1-.77-2.2-1.66-3.53-2.5a44.8,44.8,0,0,0-4.23-2.37c-2.92-1.4-6.13-2.23-9.07-1.31S20.67,251.76,19.11,257.84Z" transform="translate(-0.6)"/>
                <path id="Path_167" data-name="Path 167" class="cls-1" d="M39.87,287.85a33.57,33.57,0,0,0,4.64,2.52,46.3,46.3,0,0,0,4.7,1.9,32.716,32.716,0,0,0,5.33,1.21,15.13,15.13,0,0,0,5.07-.07,8.491,8.491,0,0,0,4.06-1.9,7.92,7.92,0,0,0,2.37-4.12,20.4,20.4,0,0,0,.26-6.75,43.012,43.012,0,0,0-4-1.84c-1.16-.53-2.53-1.09-4-1.6a47.006,47.006,0,0,0-4.66-1.31c-3.17-.67-6.51-.7-9.12.86S39.94,281.59,39.87,287.85Z" transform="translate(-0.6)"/>
                <path id="Path_168" data-name="Path 168" class="cls-1" d="M39.87,287.85a33.57,33.57,0,0,0,4.64,2.52,46.3,46.3,0,0,0,4.7,1.9,32.716,32.716,0,0,0,5.33,1.21,15.13,15.13,0,0,0,5.07-.07,8.491,8.491,0,0,0,4.06-1.9,7.92,7.92,0,0,0,2.37-4.12,20.4,20.4,0,0,0,.26-6.75,43.012,43.012,0,0,0-4-1.84c-1.16-.53-2.53-1.09-4-1.6a47.006,47.006,0,0,0-4.66-1.31c-3.17-.67-6.51-.7-9.12.86S39.94,281.59,39.87,287.85Z" transform="translate(-0.6)"/>
                <path id="Path_169" data-name="Path 169" class="cls-1" d="M67.08,312.13s.52.19,1.41.46a34.258,34.258,0,0,0,3.69.9,49.748,49.748,0,0,0,5,.75,32,32,0,0,0,5.47-.08c3.54-.34,6.75-1.65,8.42-4.06a7.91,7.91,0,0,0,1.33-4.56,14,14,0,0,0-.33-3,26.113,26.113,0,0,0-1-3.62s-1.74-.45-4.29-.86c-1.25-.24-2.72-.46-4.28-.61-.78-.07-1.59-.12-2.41-.14s-1.62-.06-2.43,0c-3.24.09-6.5.86-8.66,3a8.53,8.53,0,0,0-2.32,4.48,17.73,17.73,0,0,0,.4,7.34Z" transform="translate(-0.6)"/>
                <path id="Path_170" data-name="Path 170" class="cls-1" d="M67.08,312.13s.52.19,1.41.46a34.258,34.258,0,0,0,3.69.9,49.748,49.748,0,0,0,5,.75,32,32,0,0,0,5.47-.08c3.54-.34,6.75-1.65,8.42-4.06a7.91,7.91,0,0,0,1.33-4.56,14,14,0,0,0-.33-3,26.113,26.113,0,0,0-1-3.62s-1.74-.45-4.29-.86c-1.25-.24-2.72-.46-4.28-.61-.78-.07-1.59-.12-2.41-.14s-1.62-.06-2.43,0c-3.24.09-6.5.86-8.66,3a8.53,8.53,0,0,0-2.32,4.48,17.73,17.73,0,0,0,.4,7.34Z" transform="translate(-0.6)"/>
                <path id="Path_171" data-name="Path 171" class="cls-1" d="M99.28,329.35s.55.06,1.49.11a30.637,30.637,0,0,0,3.8,0,50.01,50.01,0,0,0,5.07-.48,28.07,28.07,0,0,0,5.29-1.36,16.289,16.289,0,0,0,4.47-2.36,8.56,8.56,0,0,0,2.74-3.57c1.08-2.78.37-6.22-2.66-10.87h-1.22c-.77,0-1.87.11-3.14.16a47.1,47.1,0,0,0-9.05,1.4c-3.14.88-6.11,2.36-7.71,4.93S96.46,323.79,99.28,329.35Z" transform="translate(-0.6)"/>
                <path id="Path_172" data-name="Path 172" class="cls-1" d="M99.28,329.35s.55.06,1.49.11a30.637,30.637,0,0,0,3.8,0,50.01,50.01,0,0,0,5.07-.48,28.07,28.07,0,0,0,5.29-1.36,16.289,16.289,0,0,0,4.47-2.36,8.56,8.56,0,0,0,2.74-3.57c1.08-2.78.37-6.22-2.66-10.87h-1.22c-.77,0-1.87.11-3.14.16a47.1,47.1,0,0,0-9.05,1.4c-3.14.88-6.11,2.36-7.71,4.93S96.46,323.79,99.28,329.35Z" transform="translate(-0.6)"/>
                <path id="Path_173" data-name="Path 173" class="cls-1" d="M134.67,338.45a47.8,47.8,0,0,0,5.16-1.1,50.352,50.352,0,0,0,4.8-1.71,25.111,25.111,0,0,0,4.81-2.55c3-2,5.23-4.53,5.6-7.44s-1.1-6.26-5.14-10c0,0-.44.1-1.18.32s-1.79.46-3,.85-2.63.88-4.09,1.49a32.206,32.206,0,0,0-4.38,2c-2.84,1.66-5.37,3.7-6.32,6.61a8.52,8.52,0,0,0,0,5,14.159,14.159,0,0,0,1.31,3.07A22.409,22.409,0,0,0,134.67,338.45Z" transform="translate(-0.6)"/>
                <path id="Path_174" data-name="Path 174" class="cls-1" d="M134.67,338.45a47.8,47.8,0,0,0,5.16-1.1,50.352,50.352,0,0,0,4.8-1.71,25.111,25.111,0,0,0,4.81-2.55c3-2,5.23-4.53,5.6-7.44s-1.1-6.26-5.14-10c0,0-.44.1-1.18.32s-1.79.46-3,.85-2.63.88-4.09,1.49a32.206,32.206,0,0,0-4.38,2c-2.84,1.66-5.37,3.7-6.32,6.61a8.52,8.52,0,0,0,0,5,14.159,14.159,0,0,0,1.31,3.07A22.409,22.409,0,0,0,134.67,338.45Z" transform="translate(-0.6)"/>
                <path id="Path_175" data-name="Path 175" class="cls-1" d="M155.1,56.17a25.65,25.65,0,0,1-2.68,1.66,47.65,47.65,0,0,1-6.35,2.92,21.06,21.06,0,0,1-3.85,1,14.23,14.23,0,0,1-4,.26,12.139,12.139,0,0,1-2-.35,13.061,13.061,0,0,1-2-.65A14.1,14.1,0,0,1,130,58.33a20.152,20.152,0,0,1,2.08-2,26.733,26.733,0,0,1,2.47-1.86,22.11,22.11,0,0,1,3.3-1.7,14.78,14.78,0,0,1,17.25,3.4Z" transform="translate(-0.6)"/>
                <path id="Path_176" data-name="Path 176" class="cls-1" d="M155.1,56.17a25.65,25.65,0,0,1-2.68,1.66,47.65,47.65,0,0,1-6.35,2.92,21.06,21.06,0,0,1-3.85,1,14.23,14.23,0,0,1-4,.26,12.139,12.139,0,0,1-2-.35,13.061,13.061,0,0,1-2-.65A14.1,14.1,0,0,1,130,58.33a20.152,20.152,0,0,1,2.08-2,26.733,26.733,0,0,1,2.47-1.86,22.11,22.11,0,0,1,3.3-1.7,14.78,14.78,0,0,1,17.25,3.4Z" transform="translate(-0.6)"/>
                <circle id="Ellipse_1" data-name="Ellipse 1" class="cls-1" cx="6.5" cy="6.5" r="6.5" transform="translate(161 308.83)"/>
              </g>
            </g>
          </svg>